<svg data-name="Layer 2" xmlns="http://www.w3.org/2000/svg" viewBox="0 0 368.27 340.23"><path d="M368.27 144.9C368.27 65.01 285.67 0 184.14 0S0 65.01 0 144.9c0 71.63 65.52 131.61 154.01 142.95 6.01 1.24 14.16 3.83 16.22 8.82 1.85 4.51 1.19 11.57.58 16.12 0 0-2.14 12.61-2.63 15.28-.82 4.51-3.7 17.64 15.97 9.62 19.63-8.02 106.06-60.54 144.67-103.64 26.67-28.41 39.47-57.19 39.47-89.15z" fill="#fff"/><path d="M146.72 106.27H133.8c-1.98 0-3.58 1.56-3.58 3.47v77.78c0 1.92 1.61 3.47 3.58 3.47h12.92c1.98 0 3.58-1.56 3.58-3.47v-77.78c0-1.92-1.61-3.47-3.58-3.47zm88.9 0H222.7c-1.98 0-3.58 1.56-3.58 3.47v46.21l-36.75-48.13c-.08-.12-.16-.24-.29-.36v-.04l-.21-.2-.08-.08c-.08-.04-.12-.12-.21-.16l-.08-.08s-.12-.08-.16-.12c-.04-.04-.08-.04-.12-.08-.08-.04-.12-.08-.21-.12-.04 0-.08-.04-.12-.04-.08-.04-.12-.08-.21-.08-.04 0-.08-.04-.12-.04-.08-.04-.12-.04-.21-.08-.04 0-.08 0-.12-.04-.08 0-.12-.04-.21-.04-.04 0-.08 0-.16-.04-.08 0-.12 0-.21-.04h-13.21c-1.98 0-3.58 1.56-3.58 3.47v77.78c0 1.92 1.61 3.47 3.58 3.47h12.92c1.98 0 3.58-1.56 3.58-3.47v-46.09l36.79 48.21c.25.36.58.64.91.84 0 0 .04 0 .04.04.08.04.16.08.21.12.04 0 .08.04.12.04.04.04.12.04.16.08s.12.04.16.08c.04 0 .08.04.12.04.08.04.16.04.25.08h.04c.29.08.62.12.91.12h12.92c1.98 0 3.58-1.56 3.58-3.47v-77.78c.04-1.92-1.56-3.47-3.54-3.47zm-120.01 65.25H80.5v-61.78c0-1.92-1.61-3.47-3.58-3.47H64c-1.98 0-3.58 1.56-3.58 3.47v77.78c0 .92.37 1.8.99 2.39l.04.04.04.04c.66.6 1.52.96 2.47.96h51.61c1.98 0 3.58-1.56 3.58-3.47v-12.53c.04-1.84-1.56-3.43-3.54-3.43zm191.34-45.77c1.98 0 3.58-1.56 3.58-3.47v-12.53c0-1.92-1.61-3.47-3.58-3.47h-51.61c-.95 0-1.85.36-2.47 1l-.04.04s-.04.04-.04.08c-.62.64-.99 1.48-.99 2.39v77.78c0 .92.37 1.8.99 2.39l.04.04.04.04c.66.6 1.52 1 2.47 1h51.61c1.98 0 3.58-1.56 3.58-3.47v-12.53c0-1.92-1.61-3.47-3.58-3.47h-35.11v-13.13h35.11c1.98 0 3.58-1.56 3.58-3.47v-12.53c0-1.92-1.61-3.47-3.58-3.47h-35.11v-13.13h35.11v-.08z" fill="#00b900"/></svg>