<svg id="Layer_2" data-name="Layer 2" xmlns="http://www.w3.org/2000/svg" viewBox="0 0 157.85 157.85"><defs><style>.cls-1{fill:#323232}</style></defs><g id="objects"><path class="cls-1" d="M112.92 157.85H44.93C20.16 157.85 0 137.7 0 112.92V44.93C0 20.15 20.15 0 44.93 0h68c24.77 0 44.93 20.15 44.93 44.93v68c0 24.77-20.15 44.93-44.93 44.93zM44.93 13.53c-17.31 0-31.4 14.08-31.4 31.4v68c0 17.31 14.08 31.4 31.4 31.4h68c17.31 0 31.4-14.08 31.4-31.4v-68c0-17.31-14.08-31.4-31.4-31.4h-68z"/><path class="cls-1" d="M78.92 119.34c-22.29 0-40.42-18.13-40.42-40.42S56.63 38.5 78.92 38.5s40.42 18.13 40.42 40.42-18.13 40.42-40.42 40.42zm0-67.3c-14.83 0-26.89 12.06-26.89 26.89s12.06 26.89 26.89 26.89 26.89-12.06 26.89-26.89-12.06-26.89-26.89-26.89zm51.87-15.84c0 5.37-4.35 9.71-9.71 9.71s-9.71-4.35-9.71-9.71 4.35-9.71 9.71-9.71 9.71 4.35 9.71 9.71z"/></g></svg>