<svg id="Layer_2" data-name="Layer 2" xmlns="http://www.w3.org/2000/svg" viewBox="0 0 21 21"><defs><style>.cls-1{fill:#fffb9a}</style></defs><g id="Layer_1-2" data-name="Layer 1"><path class="cls-1" d="M10.51 2c4.63 0 8.36 3.63 8.49 8.25.14 4.68-3.57 8.61-8.25 8.74h-.25c-4.63 0-8.36-3.63-8.49-8.25C1.87 6.06 5.58 2.13 10.26 2h.25m0-2h-.31C4.4.17-.16 5.01 0 10.8.16 16.49 4.83 21 10.49 21h.31c5.8-.17 10.36-5 10.19-10.8C20.83 4.5 16.16 0 10.51 0z"/><path class="cls-1" d="M7.57 5.7v9.4l7.85-4.7-7.85-4.7z"/></g></svg>